<?xml version="1.0" standalone="no"?>
<!DOCTYPE svg PUBLIC "-//W3C//DTD SVG 20010904//EN"
 "http://www.w3.org/TR/2001/REC-SVG-20010904/DTD/svg10.dtd">
<svg version="1.0" xmlns="http://www.w3.org/2000/svg"
 width="1500.000000pt" height="1500.000000pt" viewBox="0 0 1500.000000 1500.000000"
 preserveAspectRatio="xMidYMid meet">
<metadata>
Created by potrace 1.16, written by Peter Selinger 2001-2019
</metadata>
<g transform="translate(0.000000,1500.000000) scale(0.100000,-0.100000)"
fill="#000000" stroke="none">
<path d="M0 7500 l0 -7500 7500 0 7500 0 0 7500 0 7500 -7500 0 -7500 0 0
-7500z m7834 6607 l74 -68 217 161 c120 88 221 160 226 160 4 0 85 -93 180
-207 94 -115 175 -208 178 -208 3 0 113 60 244 134 131 73 239 132 241 130 2
-2 69 -108 150 -235 l146 -231 251 103 c138 57 254 104 258 104 4 0 61 -112
125 -249 69 -145 123 -248 130 -246 6 3 121 34 256 70 135 36 250 68 257 70 8
3 41 -83 98 -258 48 -144 87 -263 89 -264 1 -1 123 15 271 37 149 21 273 36
276 32 3 -4 25 -104 48 -222 24 -118 47 -237 53 -263 l10 -48 276 1 c261 1
277 0 280 -17 1 -10 11 -132 21 -271 10 -139 21 -255 23 -258 3 -2 125 -17
271 -32 146 -15 269 -30 272 -34 3 -3 0 -126 -8 -274 -7 -148 -9 -272 -5 -275
5 -3 125 -32 268 -64 238 -53 260 -60 260 -79 0 -12 -20 -136 -45 -275 -24
-140 -43 -256 -42 -256 1 -1 113 -42 249 -90 135 -48 252 -91 258 -95 9 -5 -9
-77 -64 -258 -42 -138 -78 -256 -81 -264 -3 -9 74 -53 240 -138 135 -69 245
-129 245 -135 0 -5 -50 -120 -110 -255 -60 -134 -108 -245 -107 -246 1 -1 103
-70 227 -154 124 -84 226 -154 228 -155 1 -1 -58 -104 -132 -227 -75 -124
-138 -232 -142 -241 -4 -11 53 -67 198 -193 112 -98 203 -181 203 -185 0 -4
-70 -96 -155 -205 -85 -109 -161 -205 -168 -215 -11 -16 10 -42 173 -225 l186
-208 -197 -197 -197 -197 153 -218 c84 -121 154 -223 156 -229 2 -5 -93 -84
-211 -175 -118 -91 -214 -169 -214 -174 -1 -5 55 -117 124 -248 69 -131 125
-240 125 -242 0 -2 -106 -66 -235 -142 -129 -77 -235 -144 -235 -149 0 -6 43
-122 95 -260 52 -137 91 -252 87 -256 -4 -4 -118 -55 -255 -115 -195 -84 -246
-111 -242 -123 27 -90 123 -516 118 -522 -5 -4 -122 -41 -262 -83 -140 -42
-256 -78 -258 -80 -2 -1 11 -126 28 -275 17 -150 29 -274 27 -275 -1 -2 -118
-22 -258 -45 -140 -23 -263 -44 -272 -47 -17 -5 -18 -27 -18 -280 0 -151 -1
-274 -2 -275 -2 0 -126 -6 -276 -14 -151 -7 -275 -15 -277 -17 -2 -1 -19 -124
-39 -272 -19 -148 -37 -270 -38 -271 -2 -2 -109 5 -238 16 -129 10 -253 19
-275 19 l-41 0 -68 -265 c-38 -146 -72 -265 -76 -265 -3 0 -126 24 -273 54
l-267 53 -102 -258 c-58 -147 -106 -255 -112 -253 -6 2 -125 42 -263 88 l-252
84 -19 -31 c-11 -18 -70 -125 -132 -240 -62 -114 -115 -209 -119 -211 -3 -2
-116 50 -250 115 -134 65 -247 116 -252 114 -4 -3 -79 -104 -165 -225 -92
-128 -162 -217 -168 -213 -6 4 -111 71 -233 150 -122 79 -223 143 -225 143 -2
0 -86 -90 -188 -200 -102 -110 -187 -200 -190 -200 -3 0 -104 82 -224 181
-198 164 -221 181 -239 169 -11 -6 -112 -89 -225 -183 l-204 -171 -67 70 c-36
38 -122 129 -191 202 l-125 134 -230 -150 c-212 -138 -231 -148 -246 -133 -9
9 -80 106 -159 216 -78 110 -146 204 -150 208 -4 5 -97 -35 -206 -88 -109 -54
-222 -108 -251 -121 l-51 -23 -133 245 c-103 188 -137 243 -149 238 -8 -3
-127 -44 -263 -90 -245 -82 -248 -83 -256 -61 -27 68 -194 483 -197 488 -2 4
-122 -18 -266 -47 -144 -30 -266 -53 -272 -51 -5 2 -40 119 -76 260 -37 142
-70 260 -74 264 -3 4 -117 -2 -254 -12 -136 -9 -258 -18 -272 -19 l-25 -1 -36
268 c-19 147 -38 270 -42 273 -3 3 -126 12 -272 19 -147 8 -269 16 -272 19 -3
2 -8 127 -11 276 -5 264 -5 270 -26 276 -12 2 -133 24 -271 47 -200 34 -250
45 -248 57 42 379 56 530 51 535 -3 4 -118 40 -255 81 -136 41 -253 76 -259
78 -8 3 10 92 53 267 35 144 62 267 61 271 -2 5 -111 56 -243 114 -132 58
-244 109 -249 114 -6 6 18 82 62 197 39 103 83 218 96 255 l26 67 -235 141
c-129 78 -235 146 -235 151 0 6 42 90 94 187 51 97 107 205 124 239 l32 62
-215 167 c-118 92 -215 171 -215 177 0 5 70 108 155 230 l155 222 -197 197
-196 197 104 116 c57 65 139 156 181 204 43 47 78 90 78 94 0 4 -74 102 -165
218 -91 115 -165 213 -165 218 0 4 92 88 205 186 175 152 203 180 194 196 -5
10 -68 115 -139 234 -72 119 -130 220 -130 224 0 4 101 76 225 161 124 84 225
155 225 157 0 3 -50 118 -111 255 -61 137 -109 251 -107 252 1 2 111 58 242
125 132 67 242 123 244 125 3 3 -122 432 -153 522 -2 8 97 48 256 105 154 55
259 97 259 105 0 7 -20 131 -45 275 -25 144 -45 262 -43 264 2 1 120 28 263
60 143 32 264 61 268 65 4 4 2 128 -6 276 -7 148 -12 271 -11 273 2 2 126 17
276 33 150 16 273 30 274 31 1 1 9 110 18 242 9 132 19 256 22 275 l5 35 277
-3 277 -3 52 267 c28 146 54 268 56 270 2 2 125 -14 273 -36 148 -21 272 -36
275 -32 4 4 44 120 89 257 46 138 84 253 86 256 2 3 123 -26 270 -66 l267 -72
52 111 c151 319 184 386 192 386 5 0 121 -47 258 -104 138 -57 250 -103 251
-102 1 0 65 102 144 226 78 124 145 229 150 233 5 6 302 -153 481 -259 4 -2
87 92 184 210 l178 214 191 -142 c105 -78 206 -152 224 -164 l32 -23 201 190
201 191 129 -122 c71 -68 163 -154 203 -191z"/>
<path d="M7426 9020 c-63 -25 -108 -69 -138 -134 l-23 -51 -3 -707 -3 -708
171 0 170 0 2 268 3 267 123 3 122 3 0 -271 0 -270 175 0 176 0 -3 708 -3 707
-23 50 c-31 68 -76 111 -139 135 -49 18 -78 20 -306 20 -224 -1 -257 -3 -301
-20z m412 -222 c9 -9 12 -88 12 -295 l0 -284 -122 3 -123 3 -3 269 c-3 335
-11 316 126 316 63 0 102 -4 110 -12z"/>
<path d="M8700 9031 c-83 -26 -151 -93 -174 -172 -24 -79 -24 -1199 0 -1278
18 -61 69 -123 128 -154 39 -21 53 -22 316 -22 263 0 277 1 315 22 54 29 89
68 117 128 20 44 23 70 26 213 l4 162 -166 0 -166 0 0 -134 c0 -169 2 -166
-125 -166 -86 0 -95 2 -109 22 -14 20 -16 91 -16 574 0 521 1 552 18 567 14
13 39 17 106 17 127 0 126 1 126 -130 l0 -110 166 0 166 0 -4 133 c-5 148 -22
204 -80 265 -62 63 -108 72 -381 71 -133 0 -253 -4 -267 -8z"/>
<path d="M9856 9020 c-63 -25 -108 -69 -138 -134 l-23 -51 -3 -707 -3 -708
171 0 170 0 2 268 3 267 123 3 122 3 0 -271 0 -270 175 0 176 0 -3 708 -3 707
-23 50 c-31 68 -76 111 -139 135 -49 18 -78 20 -306 20 -224 -1 -257 -3 -301
-20z m412 -222 c9 -9 12 -88 12 -295 l0 -284 -122 3 -123 3 -3 269 c-3 335
-11 316 126 316 63 0 102 -4 110 -12z"/>
<path d="M4360 8220 l0 -800 175 0 175 0 0 800 0 800 -175 0 -175 0 0 -800z"/>
<path d="M4920 8875 l0 -145 130 0 130 0 0 -655 0 -655 175 0 175 0 0 655 0
655 130 0 130 0 0 145 0 145 -435 0 -435 0 0 -145z"/>
<path d="M5990 8220 l0 -800 175 0 175 0 0 315 0 315 135 0 135 0 0 -315 0
-315 175 0 175 0 0 800 0 800 -175 0 -175 0 0 -335 0 -335 -135 0 -135 0 0
335 0 335 -175 0 -175 0 0 -800z"/>
<path d="M3043 6151 c-48 -12 -119 -58 -143 -90 -47 -67 -65 -193 -38 -272 36
-106 127 -173 238 -173 105 -1 184 46 233 139 18 32 22 57 22 130 0 99 -16
143 -71 199 -55 56 -165 86 -241 67z m137 -119 c44 -33 64 -79 64 -146 -1 -95
-44 -158 -120 -172 -94 -17 -177 88 -159 202 17 116 131 178 215 116z"/>
<path d="M4197 6150 c-111 -21 -172 -145 -114 -230 29 -45 69 -66 150 -84 79
-16 97 -29 97 -66 0 -65 -98 -74 -168 -15 l-28 24 -42 -27 c-23 -15 -42 -30
-42 -33 0 -17 46 -62 83 -81 32 -17 60 -22 117 -22 64 -1 82 3 121 26 52 30
79 76 79 131 0 99 -60 156 -181 172 -67 9 -99 28 -99 60 0 50 97 63 149 20
l30 -26 40 26 c23 14 41 29 41 34 0 20 -83 79 -125 90 -48 12 -52 12 -108 1z"/>
<path d="M4692 6142 c-80 -29 -121 -69 -152 -150 -39 -101 -16 -231 53 -302
77 -80 206 -99 306 -45 92 50 130 121 130 240 0 117 -38 190 -126 237 -67 37
-143 44 -211 20z m157 -110 c53 -39 66 -69 66 -147 0 -82 -14 -111 -76 -153
-54 -38 -135 -18 -174 42 -36 55 -34 174 3 226 43 59 126 73 181 32z"/>
<path d="M8489 6144 c-142 -43 -213 -248 -138 -398 74 -149 287 -180 401 -59
29 30 48 72 48 104 0 16 -7 19 -53 19 -51 0 -54 -2 -69 -33 -17 -36 -69 -67
-110 -67 -33 0 -85 35 -108 72 -24 40 -27 141 -6 192 16 39 56 72 97 81 39 9
98 -21 124 -62 18 -30 24 -32 73 -33 46 0 52 2 52 20 0 34 -38 97 -74 125 -40
30 -114 55 -160 54 -17 0 -52 -7 -77 -15z"/>
<path d="M10277 6146 c-66 -18 -117 -61 -151 -129 -55 -109 -31 -265 52 -338
104 -92 256 -88 353 9 141 141 83 401 -100 456 -64 19 -89 19 -154 2z m152
-115 c83 -59 83 -232 -1 -294 -94 -70 -218 13 -218 146 0 137 120 218 219 148z"/>
<path d="M3460 5885 l0 -265 55 0 55 0 0 105 0 105 95 0 95 0 0 50 0 50 -95 0
-95 0 0 55 0 55 125 0 125 0 0 55 0 55 -180 0 -180 0 0 -265z"/>
<path d="M5120 5972 c0 -187 6 -225 42 -278 85 -123 298 -103 361 35 19 40 22
69 25 234 l4 187 -60 0 -61 0 -3 -191 -3 -191 -28 -24 c-39 -34 -100 -33 -131
1 -32 34 -36 62 -36 246 l0 159 -55 0 -55 0 0 -178z"/>
<path d="M5620 6100 l0 -50 80 0 80 0 0 -215 0 -215 55 0 55 0 2 213 3 212 83
3 82 3 0 49 0 50 -220 0 -220 0 0 -50z"/>
<path d="M6140 5885 l0 -265 60 0 60 0 0 105 0 105 90 0 90 0 0 -105 0 -105
55 0 55 0 0 265 0 265 -55 0 -55 0 0 -105 0 -105 -90 0 -90 0 0 105 0 105 -60
0 -60 0 0 -265z"/>
<path d="M6830 5886 l0 -266 128 0 c153 0 195 10 244 60 35 35 38 42 38 95 0
52 -3 60 -35 92 l-35 35 20 25 c25 32 27 104 3 143 -9 15 -35 39 -57 52 -36
20 -57 23 -173 26 l-133 4 0 -266z m250 144 c11 -11 20 -29 20 -40 0 -39 -35
-60 -100 -60 l-60 0 0 60 0 60 60 0 c47 0 64 -4 80 -20z m28 -204 c20 -20 18
-77 -4 -93 -11 -8 -47 -13 -91 -13 l-73 0 0 58 c0 32 3 62 8 66 12 13 144 -2
160 -18z"/>
<path d="M7330 5885 l0 -265 185 0 185 0 0 50 0 50 -125 0 -125 0 0 60 0 60
96 0 95 0 -3 48 -3 47 -92 3 -93 3 0 54 0 55 120 0 120 0 0 50 0 50 -180 0
-180 0 0 -265z"/>
<path d="M7862 5893 c-50 -143 -92 -262 -92 -266 0 -4 27 -7 59 -7 l59 0 17
50 17 51 96 -3 96 -3 15 -47 15 -48 58 0 c32 0 58 3 58 8 0 4 -42 122 -93 262
l-92 255 -60 3 -61 3 -92 -258z"/>
<path d="M8900 5885 l0 -265 55 0 55 0 0 105 0 105 90 0 90 0 0 -105 0 -105
60 0 60 0 0 265 0 266 -57 -3 -58 -3 -3 -102 -3 -103 -89 0 -90 0 0 105 0 105
-55 0 -55 0 0 -265z"/>
<path d="M9590 5885 l0 -265 55 0 55 0 0 105 0 105 90 0 90 0 0 -105 0 -105
60 0 60 0 0 265 0 266 -57 -3 -58 -3 -3 -102 -3 -103 -89 0 -90 0 0 105 0 105
-55 0 -55 0 0 -265z"/>
<path d="M10670 6100 l0 -50 80 0 80 0 0 -215 0 -215 60 0 60 0 0 215 0 215
80 0 80 0 0 50 0 50 -220 0 -220 0 0 -50z"/>
<path d="M11190 5885 l0 -265 185 0 185 0 0 50 0 50 -125 0 -125 0 0 60 0 60
96 0 95 0 -3 48 -3 47 -92 3 -93 3 0 54 0 55 120 0 120 0 0 50 0 50 -180 0
-180 0 0 -265z"/>
<path d="M11660 5885 l0 -265 180 0 180 0 0 50 0 50 -120 0 -120 0 0 215 0
215 -60 0 -60 0 0 -265z"/>
</g>
</svg>
